<svg width="47" height="47" viewBox="0 0 47 47" fill="none" xmlns="http://www.w3.org/2000/svg">
<g clip-path="url(#clip0_333_990)">
<path d="M0 23.8369C0 23.5848 0 23.3281 0 23.0759C0.531888 22.1958 1.05927 21.3157 1.60017 20.4447C1.91119 19.9405 2.04642 19.4179 1.89767 18.8174C1.71737 18.1023 1.60017 17.3688 1.43339 16.6537C1.21253 15.714 1.42438 14.953 2.22672 14.3755C2.80368 13.9629 3.3536 13.5045 3.91704 13.069C4.41287 12.6794 4.74643 12.2026 4.81855 11.5425C4.89968 10.7678 5.0304 9.99312 5.13408 9.21842C5.24226 8.40705 5.67047 7.86155 6.43675 7.60485C7.185 7.35273 7.93325 7.09144 8.69052 6.86682C9.29002 6.68804 9.7002 6.31674 9.97967 5.75749C10.3403 5.04238 10.7054 4.33185 11.084 3.62591C11.4446 2.95206 11.9945 2.60368 12.7608 2.63118C13.5091 2.65869 14.2618 2.65869 15.0101 2.70911C15.7178 2.75953 16.3127 2.55325 16.8311 2.05818C17.363 1.54935 17.9084 1.05886 18.4538 0.56837C19.0849 -4.88756e-05 19.779 -0.174242 20.5814 0.197064C21.2034 0.485858 21.8615 0.705891 22.4836 0.999268C23.1732 1.32473 23.8313 1.33849 24.5255 1.00844C25.1475 0.715059 25.8056 0.504194 26.4276 0.206232C27.257 -0.187994 27.9602 -4.88756e-05 28.6093 0.582122C29.033 0.958012 29.4702 1.32015 29.8534 1.7373C30.561 2.50741 31.3904 2.82829 32.4317 2.68619C33.0041 2.60826 33.5946 2.65869 34.1806 2.6266C35.0235 2.58076 35.6185 2.95206 36.0016 3.69926C36.3487 4.37311 36.7048 5.04238 37.0429 5.72081C37.3314 6.30298 37.7551 6.68346 38.3771 6.8714C39.1163 7.09144 39.842 7.34814 40.5723 7.5911C41.3386 7.84322 41.7893 8.36121 41.893 9.18634C41.9696 9.79601 42.0958 10.3965 42.1364 11.0062C42.195 12.0101 42.5961 12.771 43.4345 13.3257C43.9214 13.6466 44.3496 14.0637 44.8229 14.4075C45.5801 14.9576 45.7875 15.6911 45.5937 16.5804C45.4494 17.2405 45.3052 17.9006 45.1609 18.5607C44.9987 19.2941 45.0663 19.9634 45.5035 20.6143C46.0399 21.4119 46.5087 22.2554 47.009 23.0805V23.8415C46.4771 24.7445 45.9497 25.6567 45.4043 26.5506C45.0843 27.0778 44.9401 27.6095 45.1068 28.2375C45.2962 28.9526 45.4088 29.6815 45.5756 30.4012C45.783 31.2951 45.5756 32.0239 44.8319 32.5832C44.2459 33.0233 43.678 33.4863 43.1055 33.9447C42.6142 34.3343 42.2761 34.8064 42.2175 35.4757C42.1454 36.2321 41.9921 36.9793 41.9065 37.7356C41.8028 38.6387 41.3205 39.1888 40.4731 39.4501C39.815 39.6518 39.1704 39.8947 38.5123 40.0827C37.8046 40.2798 37.2998 40.6832 36.9888 41.3708C36.7003 42.0034 36.3352 42.5947 36.0332 43.2227C35.632 44.0616 34.9874 44.4466 34.0769 44.3916C33.3692 44.3504 32.6616 44.3321 31.9539 44.2908C31.2958 44.2541 30.7278 44.4604 30.2455 44.9142C29.6911 45.4276 29.1322 45.9365 28.5777 46.4453C27.9467 47.0229 27.248 47.1741 26.4502 46.8166C25.8056 46.5278 25.1295 46.294 24.4894 45.996C23.8403 45.6935 23.2183 45.6843 22.5647 45.9869C21.9201 46.2803 21.2485 46.5186 20.6039 46.812C19.779 47.1833 19.0714 47.0229 18.4223 46.4269C17.8678 45.9135 17.3044 45.4093 16.7545 44.8959C16.2857 44.4604 15.7358 44.2633 15.1002 44.2954C14.3925 44.3321 13.6849 44.355 12.9772 44.3962C12.0351 44.4558 11.386 44.057 10.9713 43.1952C10.6423 42.5122 10.3313 41.8108 9.90755 41.192C9.62808 40.7886 9.20437 40.4127 8.76264 40.211C8.02791 39.8718 7.23008 39.6884 6.45929 39.4271C5.70202 39.1704 5.23775 38.6524 5.13858 37.8273C5.06195 37.2176 4.93124 36.6171 4.89968 36.0075C4.84109 35.0036 4.42639 34.2426 3.59701 33.6879C3.11019 33.3625 2.68198 32.9545 2.20869 32.6061C1.45593 32.056 1.24408 31.3226 1.44241 30.4287C1.59116 29.7686 1.73089 29.1085 1.87513 28.4484C2.0374 27.715 1.96078 27.0503 1.52805 26.3948C0.987149 25.5742 0.522873 24.6987 0.0270452 23.846L0 23.8369ZM5.63441 23.4931C5.62089 33.4771 13.5767 41.5679 23.4662 41.6229C33.3106 41.6779 41.3611 33.5367 41.3701 23.5114C41.3836 13.5137 33.2836 5.29908 23.4842 5.36784C13.5902 5.4366 5.64793 13.4999 5.63441 23.4931Z" fill="white"/>
<path d="M7.66724 23.5023C7.80697 14.4672 14.8973 7.3528 23.6104 7.44448C32.3279 7.53616 39.4228 14.6964 39.3101 23.6628C39.2019 32.6108 32.0259 39.6931 23.3579 39.5693C14.5638 39.4456 7.7078 32.2532 7.66724 23.5023ZM28.8932 33.0875C29.948 33.0004 30.7187 32.1249 30.5339 31.0568C30.2545 29.457 29.9029 27.8709 29.5513 26.2848C29.4611 25.886 29.5333 25.6293 29.8443 25.3543C30.9892 24.3412 32.1071 23.2915 33.2384 22.2646C33.8109 21.7421 34.0949 21.114 33.865 20.3393C33.6351 19.5601 33.0627 19.1979 32.2919 19.1017C30.7864 18.9137 29.2808 18.7028 27.7708 18.5378C27.4102 18.4966 27.2254 18.3682 27.0812 18.0382C26.4546 16.6354 25.7875 15.2511 25.161 13.8484C24.8229 13.0874 24.309 12.5786 23.4616 12.5923C22.6412 12.6061 22.1499 13.1149 21.8209 13.8484C21.1943 15.2511 20.5272 16.6354 19.9007 18.0382C19.7519 18.3682 19.5671 18.4966 19.2065 18.5378C17.719 18.6983 16.2315 18.9045 14.7441 19.0879C13.9552 19.1842 13.3557 19.5326 13.1123 20.3439C12.8644 21.1599 13.2025 21.7787 13.7885 22.3105C14.9199 23.3419 16.0377 24.387 17.1781 25.4047C17.4486 25.6431 17.5207 25.8631 17.4396 26.2252C17.115 27.6417 16.8265 29.0719 16.5381 30.4975C16.4704 30.8276 16.4028 31.1714 16.4344 31.5014C16.5651 32.7666 17.8543 33.3992 19.0307 32.7575C20.4055 32.0057 21.7442 31.1943 23.119 30.4425C23.3219 30.3325 23.6825 30.3325 23.8853 30.4425C25.206 31.1622 26.4952 31.9369 27.8069 32.6658C28.1449 32.8537 28.5281 32.9546 28.8932 33.0921V33.0875Z" fill="white"/>
</g>
<defs>
<clipPath id="clip0_333_990">
<rect width="47" height="47" fill="white"/>
</clipPath>
</defs>
</svg>
