<svg width="48" height="48" viewBox="0 0 48 48" fill="none" xmlns="http://www.w3.org/2000/svg">
<path d="M35 27.5097C34.9718 27.774 34.9506 28.0407 34.9106 28.3026C34.3317 32.1316 32.4327 34.9712 28.9995 36.6542C28.1924 37.0494 27.3358 37.3016 26.4605 37.4835C26.4275 37.4908 26.3946 37.4908 26.3475 37.4956C26.5664 37.3477 26.7805 37.2167 26.9758 37.064C27.7076 36.4893 28.1006 35.7108 28.2418 34.7869C28.3547 34.0498 28.3312 33.3247 28.0653 32.619C27.5382 31.2174 26.2228 30.4657 24.7897 30.7639C24.4156 30.8415 24.0532 30.9798 23.6767 31.0525C22.2366 31.3265 21.0271 30.5796 20.5259 29.132C20.2505 28.3341 20.22 27.5145 20.34 26.6876C20.3894 26.3433 20.4788 26.0062 20.5494 25.6643C20.5565 25.6303 20.5612 25.5964 20.5682 25.5624C20.5541 25.5503 20.54 25.5382 20.5259 25.526C20.3023 25.771 20.0717 26.011 19.8529 26.2584C18.721 27.5485 17.9845 29.0398 17.7633 30.7712C17.4927 32.8906 17.9562 34.8185 19.2881 36.4893C19.7517 37.0688 20.3094 37.5368 20.9424 37.9127C20.9706 37.9297 20.9988 37.9491 21.0177 38C20.6459 37.8933 20.2717 37.7963 19.9046 37.6823C18.6786 37.2992 17.5186 36.7657 16.4738 35.9921C14.5371 34.559 13.3511 32.636 13.0735 30.1892C12.7487 27.3157 13.4994 24.7549 15.3443 22.5531C16.2973 21.4158 17.4174 20.4724 18.5516 19.5388C19.3846 18.8526 20.2105 18.159 21.0059 17.4316C21.6883 16.8083 22.2389 16.0663 22.6084 15.1933C23.0178 14.2233 23.1214 13.2073 23.0296 12.1646C22.9402 11.1364 22.6766 10.1494 22.3401 9.17945C22.3213 9.1261 22.3048 9.07517 22.2789 9C22.3142 9.0097 22.3307 9.01212 22.3448 9.0194C23.7073 9.85601 24.9427 10.8527 25.9098 12.1621C26.6322 13.1394 27.1476 14.2209 27.3241 15.4455C27.6064 17.4291 27.1029 19.1751 25.7757 20.6543C25.4886 20.9744 25.2204 21.2994 25.058 21.7043C24.5403 23.0138 25.3357 24.025 26.3052 24.3063C27.4158 24.6288 28.6371 23.9377 29.0772 22.7616C29.2395 22.3227 29.2513 21.8716 29.216 21.4133C29.1572 20.6228 29.1666 19.8323 29.3572 19.0563C29.7149 17.6037 30.6373 16.772 32.0445 16.4883C32.2492 16.447 32.4563 16.4228 32.6916 16.384C32.6563 16.4592 32.6351 16.5077 32.6116 16.5537C32.301 17.1915 32.0703 17.8559 32.0398 18.5761C32.0021 19.4224 32.2821 20.1815 32.6963 20.892C33.0963 21.5831 33.5293 22.2548 33.927 22.9483C34.5294 24.0008 34.8965 25.1356 34.9741 26.3651C34.9741 26.399 34.9906 26.433 34.9976 26.4669V27.5145L35 27.5097Z" fill="white"/>
<path d="M0 23.8388C0 23.5867 0 23.33 0 23.0779C0.531888 22.1978 1.05927 21.3176 1.60017 20.4467C1.91119 19.9424 2.04642 19.4198 1.89767 18.8193C1.71737 18.1042 1.60017 17.3708 1.43339 16.6557C1.21253 15.7159 1.42438 14.955 2.22672 14.3774C2.80368 13.9648 3.3536 13.5064 3.91704 13.071C4.41287 12.6813 4.74643 12.2046 4.81855 11.5445C4.89968 10.7698 5.0304 9.99508 5.13408 9.22038C5.24226 8.40901 5.67047 7.86351 6.43675 7.6068C7.185 7.35468 7.93325 7.09339 8.69052 6.86877C9.29002 6.69 9.7002 6.31869 9.97967 5.75944C10.3403 5.04433 10.7054 4.33381 11.084 3.62787C11.4446 2.95402 11.9945 2.60563 12.7608 2.63313C13.5091 2.66064 14.2618 2.66064 15.0101 2.71106C15.7178 2.76149 16.3127 2.55521 16.8311 2.06013C17.363 1.5513 17.9084 1.06081 18.4538 0.570323C19.0849 0.00190425 19.779 -0.172289 20.5814 0.199017C21.2034 0.487811 21.8615 0.707844 22.4836 1.00122C23.1732 1.32669 23.8313 1.34044 24.5255 1.01039C25.1475 0.717012 25.8056 0.506147 26.4276 0.208185C27.257 -0.186041 27.9602 0.00190425 28.6093 0.584075C29.033 0.959965 29.4702 1.3221 29.8534 1.73925C30.561 2.50937 31.3904 2.83025 32.4317 2.68814C33.0041 2.61021 33.5946 2.66064 34.1806 2.62855C35.0235 2.58271 35.6185 2.95402 36.0016 3.70121C36.3487 4.37506 36.7048 5.04433 37.0429 5.72277C37.3314 6.30494 37.7551 6.68541 38.3771 6.87336C39.1163 7.09339 39.842 7.3501 40.5723 7.59305C41.3385 7.84517 41.7893 8.36317 41.893 9.18829C41.9696 9.79797 42.0958 10.3985 42.1364 11.0081C42.195 12.012 42.5961 12.773 43.4345 13.3277C43.9214 13.6485 44.3496 14.0657 44.8229 14.4095C45.5801 14.9596 45.7875 15.693 45.5937 16.5823C45.4494 17.2424 45.3052 17.9025 45.1609 18.5626C44.9987 19.2961 45.0663 19.9653 45.5035 20.6163C46.0399 21.4139 46.5087 22.2573 47.009 23.0825V23.8434C46.4771 24.7465 45.9497 25.6587 45.4043 26.5526C45.0843 27.0797 44.9401 27.6115 45.1068 28.2395C45.2962 28.9546 45.4088 29.6835 45.5756 30.4032C45.783 31.297 45.5756 32.0259 44.8319 32.5851C44.2459 33.0252 43.678 33.4882 43.1055 33.9466C42.6142 34.3362 42.2761 34.8084 42.2175 35.4777C42.1454 36.234 41.9921 36.9812 41.9065 37.7376C41.8028 38.6406 41.3205 39.1907 40.4731 39.452C39.815 39.6537 39.1704 39.8967 38.5123 40.0846C37.8046 40.2817 37.2998 40.6851 36.9888 41.3727C36.7003 42.0053 36.3352 42.5967 36.0332 43.2247C35.632 44.0635 34.9874 44.4486 34.0769 44.3936C33.3692 44.3523 32.6616 44.334 31.9539 44.2927C31.2958 44.2561 30.7278 44.4624 30.2455 44.9162C29.6911 45.4296 29.1322 45.9384 28.5777 46.4472C27.9467 47.0248 27.248 47.1761 26.4502 46.8185C25.8056 46.5298 25.1295 46.296 24.4894 45.998C23.8403 45.6955 23.2183 45.6863 22.5647 45.9888C21.9201 46.2822 21.2485 46.5206 20.6039 46.814C19.779 47.1853 19.0714 47.0248 18.4223 46.4289C17.8678 45.9155 17.3044 45.4113 16.7545 44.8978C16.2857 44.4624 15.7358 44.2652 15.1002 44.2973C14.3925 44.334 13.6849 44.3569 12.9772 44.3982C12.0351 44.4578 11.386 44.059 10.9713 43.1972C10.6423 42.5141 10.3313 41.8128 9.90755 41.1939C9.62808 40.7906 9.20437 40.4147 8.76264 40.213C8.02791 39.8738 7.23008 39.6904 6.45929 39.4291C5.70202 39.1724 5.23775 38.6544 5.13858 37.8293C5.06195 37.2196 4.93124 36.6191 4.89968 36.0094C4.84109 35.0055 4.42639 34.2446 3.59701 33.6899C3.11019 33.3644 2.68198 32.9565 2.20869 32.6081C1.45593 32.058 1.24408 31.3245 1.44241 30.4307C1.59116 29.7706 1.73089 29.1105 1.87513 28.4504C2.0374 27.7169 1.96078 27.0522 1.52805 26.3967C0.987149 25.5762 0.522873 24.7006 0.0270452 23.848L0 23.8388ZM5.63441 23.495C5.62089 33.479 13.5767 41.5698 23.4662 41.6248C33.3106 41.6799 41.3611 33.5386 41.3701 23.5134C41.3836 13.5156 33.2836 5.30104 23.4842 5.3698C13.5902 5.43856 5.64793 13.5019 5.63441 23.495Z" fill="white"/>
</svg>
