<svg width="48" height="48" viewBox="0 0 48 48" fill="none" xmlns="http://www.w3.org/2000/svg">
<path d="M33.7263 19.174C33.7263 21.9245 33.7263 24.6641 33.7263 27.4146C33.7263 30.6254 31.019 33.0362 27.8294 32.6855C26.0537 32.4883 24.6508 31.0637 24.5302 29.3323C24.4096 27.6228 25.5824 26.0887 27.3252 25.6503C28.4651 25.3654 29.605 25.0695 30.745 24.7737C31.4355 24.5983 31.6766 24.2696 31.6766 23.5683C31.6766 21.5738 31.6766 19.5685 31.6766 17.5741C31.6766 16.7303 31.1505 16.3139 30.3065 16.4783C27.106 17.1029 23.8945 17.7275 20.6939 18.3521C19.839 18.5165 19.4334 18.9987 19.4334 19.8863C19.4334 23.382 19.4334 26.8886 19.4334 30.3843C19.4334 31.6555 19.0607 32.7951 18.2716 33.8142C16.9015 35.5566 14.3695 36.2579 12.3856 35.4032C11.0703 34.8443 10.1386 33.4197 10.2154 32.1047C10.314 30.4939 11.3114 29.1898 12.7911 28.7734C13.9749 28.4447 15.1696 28.1598 16.3644 27.8529C17.1536 27.6557 17.3728 27.3598 17.3728 26.5489C17.3728 22.1766 17.3728 17.8042 17.3728 13.4428C17.3728 12.5114 17.8112 12.0073 18.71 11.8319C21.3187 11.3498 23.9164 10.8457 26.5141 10.3526C28.498 9.98 30.4819 9.59646 32.4658 9.23484C33.1454 9.1143 33.6715 9.49784 33.7044 10.1992C33.7373 11.3279 33.7263 12.4456 33.7263 13.5743C33.7263 14.966 33.7263 16.3577 33.7263 17.7494C33.7263 18.2206 33.7263 18.6918 33.7263 19.1521V19.174Z" fill="white"/>
<path d="M0 23.8388C0 23.5867 0 23.33 0 23.0779C0.531888 22.1978 1.05927 21.3176 1.60017 20.4467C1.91119 19.9424 2.04642 19.4198 1.89767 18.8193C1.71737 18.1042 1.60017 17.3708 1.43339 16.6557C1.21253 15.7159 1.42438 14.955 2.22672 14.3774C2.80368 13.9648 3.3536 13.5064 3.91704 13.071C4.41287 12.6813 4.74643 12.2046 4.81855 11.5445C4.89968 10.7698 5.0304 9.99508 5.13408 9.22038C5.24226 8.40901 5.67047 7.86351 6.43675 7.6068C7.185 7.35468 7.93325 7.09339 8.69052 6.86877C9.29002 6.69 9.7002 6.31869 9.97967 5.75944C10.3403 5.04433 10.7054 4.33381 11.084 3.62787C11.4446 2.95402 11.9945 2.60563 12.7608 2.63313C13.5091 2.66064 14.2618 2.66064 15.0101 2.71106C15.7178 2.76149 16.3127 2.55521 16.8311 2.06013C17.363 1.5513 17.9084 1.06081 18.4538 0.570323C19.0849 0.00190425 19.779 -0.172289 20.5814 0.199017C21.2034 0.487811 21.8615 0.707844 22.4836 1.00122C23.1732 1.32669 23.8313 1.34044 24.5255 1.01039C25.1475 0.717012 25.8056 0.506147 26.4276 0.208185C27.257 -0.186041 27.9602 0.00190425 28.6093 0.584075C29.033 0.959965 29.4702 1.3221 29.8534 1.73925C30.561 2.50937 31.3904 2.83025 32.4317 2.68814C33.0041 2.61021 33.5946 2.66064 34.1806 2.62855C35.0235 2.58271 35.6185 2.95402 36.0016 3.70121C36.3487 4.37506 36.7048 5.04433 37.0429 5.72277C37.3314 6.30494 37.7551 6.68541 38.3771 6.87336C39.1163 7.09339 39.842 7.3501 40.5723 7.59305C41.3386 7.84517 41.7893 8.36317 41.893 9.18829C41.9696 9.79797 42.0958 10.3985 42.1364 11.0081C42.195 12.012 42.5961 12.773 43.4345 13.3277C43.9214 13.6485 44.3496 14.0657 44.8229 14.4095C45.5801 14.9596 45.7875 15.693 45.5937 16.5823C45.4494 17.2424 45.3052 17.9025 45.1609 18.5626C44.9987 19.2961 45.0663 19.9653 45.5035 20.6163C46.0399 21.4139 46.5087 22.2573 47.009 23.0825V23.8434C46.4771 24.7465 45.9497 25.6587 45.4043 26.5526C45.0843 27.0797 44.9401 27.6115 45.1068 28.2395C45.2962 28.9546 45.4088 29.6835 45.5756 30.4032C45.783 31.297 45.5756 32.0259 44.8319 32.5851C44.2459 33.0252 43.678 33.4882 43.1055 33.9466C42.6142 34.3362 42.2761 34.8084 42.2175 35.4777C42.1454 36.234 41.9921 36.9812 41.9065 37.7376C41.8028 38.6406 41.3205 39.1907 40.4731 39.452C39.815 39.6537 39.1704 39.8967 38.5123 40.0846C37.8046 40.2817 37.2998 40.6851 36.9888 41.3727C36.7003 42.0053 36.3352 42.5967 36.0332 43.2247C35.632 44.0635 34.9874 44.4486 34.0769 44.3936C33.3692 44.3523 32.6616 44.334 31.9539 44.2927C31.2958 44.2561 30.7278 44.4624 30.2455 44.9162C29.6911 45.4296 29.1322 45.9384 28.5777 46.4472C27.9467 47.0248 27.248 47.1761 26.4502 46.8185C25.8056 46.5298 25.1295 46.296 24.4894 45.998C23.8403 45.6955 23.2183 45.6863 22.5647 45.9888C21.9201 46.2822 21.2485 46.5206 20.6039 46.814C19.779 47.1853 19.0714 47.0248 18.4223 46.4289C17.8678 45.9155 17.3044 45.4113 16.7545 44.8978C16.2857 44.4624 15.7358 44.2652 15.1002 44.2973C14.3925 44.334 13.6849 44.3569 12.9772 44.3982C12.0351 44.4578 11.386 44.059 10.9713 43.1972C10.6423 42.5141 10.3313 41.8128 9.90755 41.1939C9.62808 40.7906 9.20437 40.4147 8.76264 40.213C8.02791 39.8737 7.23008 39.6904 6.45929 39.4291C5.70202 39.1724 5.23775 38.6544 5.13858 37.8293C5.06195 37.2196 4.93124 36.6191 4.89968 36.0094C4.84109 35.0055 4.42639 34.2446 3.59701 33.6899C3.11019 33.3644 2.68198 32.9565 2.20869 32.6081C1.45593 32.058 1.24408 31.3245 1.44241 30.4307C1.59116 29.7706 1.73089 29.1105 1.87513 28.4504C2.0374 27.7169 1.96078 27.0522 1.52805 26.3967C0.987149 25.5762 0.522873 24.7006 0.0270452 23.848L0 23.8388ZM5.63441 23.495C5.62089 33.479 13.5767 41.5698 23.4662 41.6248C33.3106 41.6799 41.3611 33.5386 41.3701 23.5134C41.3836 13.5156 33.2836 5.30104 23.4842 5.3698C13.5902 5.43856 5.64793 13.5019 5.63441 23.495Z" fill="white"/>
</svg>
